<svg xmlns="http://www.w3.org/2000/svg" width="200" height="150" viewBox="0 0 224 176" fill="none">
<g clip-path="url(#clip0)">
<path opacity="0.5" d="M78.3471 172.119C99.9269 172.119 117.421 168.805 117.421 164.717C117.421 160.629 99.9269 157.315 78.3471 157.315C56.7673 157.315 39.2734 160.629 39.2734 164.717C39.2734 168.805 56.7673 172.119 78.3471 172.119Z" fill="#D9D9DC"/>
<path opacity="0.5" d="M130.146 24.7178C115.785 24.2208 102.108 19.5834 89.0483 14.5112C75.9883 9.43894 63.0525 3.82086 49.0361 1.13385C40.021 -0.594616 29.7101 -0.840907 22.4479 3.98727C15.4563 8.64682 13.1976 16.6679 11.9838 24.1165C11.0697 29.7213 10.5327 35.6212 13.0356 40.8687C14.7751 44.512 17.8593 47.574 19.9938 51.0642C27.4203 63.2057 22.1705 78.1784 14.125 90.0336C10.353 95.594 5.97081 100.906 3.05749 106.819C0.144159 112.732 -1.20267 119.531 1.34677 125.579C3.8718 131.57 9.89149 136.061 16.4126 139.223C29.6568 145.646 45.2575 147.484 60.4809 148.526C94.1694 150.83 128.035 149.833 161.813 148.833C174.314 148.464 186.868 148.089 199.165 146.157C205.994 145.083 213.043 143.379 218.002 139.265C224.295 134.044 225.855 125.204 221.637 118.659C214.563 107.676 195.011 104.949 190.061 93.1644C187.34 86.6765 190.134 79.452 194.09 73.4367C202.575 60.5298 216.795 49.2071 217.543 34.4563C218.058 24.3251 211.222 14.1784 200.651 9.38347C189.573 4.35782 174.207 4.99019 166.037 13.3086C157.617 21.8644 142.826 25.1594 130.146 24.7178Z" fill="#D9D9DC"/>
<g opacity="0.1">
<path opacity="0.1" d="M63.0749 26.7835C63.0949 26.6748 63.1082 26.5616 63.1326 26.4529C62.9218 26.6371 62.9107 26.9499 62.8553 27.2273C62.8273 27.3873 62.7835 27.5442 62.7244 27.6955C62.8991 27.417 63.0181 27.1073 63.0749 26.7835Z" fill="black"/>
<path opacity="0.1" d="M63.1458 28.6163C63.2563 28.3308 63.3309 28.0326 63.3677 27.7287C63.1456 27.8223 62.905 27.864 62.6643 27.8508C62.5943 28.0068 62.5088 28.1555 62.4092 28.2945C62.6608 28.314 62.9134 28.2729 63.1458 28.1747C63.109 28.4786 63.0344 28.7768 62.924 29.0623C63.0622 29.0655 63.1984 29.029 63.3164 28.957C63.4344 28.885 63.5292 28.7806 63.5896 28.6562C63.6449 28.5554 63.6895 28.449 63.7227 28.3389C63.6576 28.4299 63.5706 28.503 63.4698 28.5515C63.369 28.6 63.2576 28.6223 63.1458 28.6163Z" fill="black"/>
<path opacity="0.1" d="M65.094 27.1075C64.779 27.0764 64.3973 26.9677 64.1932 27.2095C64.1446 27.2765 64.1085 27.3516 64.0867 27.4314C64.0667 27.4891 64.049 27.549 64.0334 27.6089C64.2442 27.4425 64.5859 27.5313 64.8722 27.5601C65.1343 27.5815 65.3974 27.5328 65.6345 27.4189C65.8715 27.3051 66.0741 27.1302 66.2212 26.9122C66.2885 26.8045 66.3386 26.687 66.3699 26.5639C66.2179 26.7519 66.0221 26.8998 65.7997 26.9946C65.5772 27.0894 65.335 27.1282 65.094 27.1075Z" fill="black"/>
</g>
<path d="M137.123 135.333C131.405 143.516 110.847 139.181 110.847 139.181L94.9159 124.273L92.7715 122.255L96.3684 114.615C96.3684 114.615 97.512 114.929 99.4734 115.49C109.772 118.481 141.95 128.453 137.123 135.333Z" fill="#EFB7B9"/>
<path opacity="0.1" d="M99.462 115.49C98.7587 117.937 96.8315 121.603 94.9159 124.273L92.7715 122.255L96.3684 114.615C96.3684 114.615 97.5235 114.929 99.462 115.49Z" fill="black"/>
<path opacity="0.1" d="M59.9936 87.9329C59.9936 87.9329 57.0257 94.0116 58.8499 93.5999C60.6741 93.1881 59.9936 87.9329 59.9936 87.9329Z" fill="black"/>
<path d="M61.429 100.21L105.461 93.0452V134.732L63.6248 132.542L61.429 100.21Z" fill="#005F8A"/>
<path opacity="0.2" d="M61.429 100.21L105.461 93.0452V134.732L63.6248 132.542L61.429 100.21Z" fill="black"/>
<path d="M105.461 93.0452L158.264 96.9966L155.342 133.274L105.461 134.732V93.0452Z" fill="#005F8A"/>
<path opacity="0.4" d="M105.461 93.0452L158.264 96.9966L155.342 133.274L105.461 134.732V93.0452Z" fill="black"/>
<path d="M121.695 80.3217L105.461 93.0452L158.264 96.9966L166.893 83.9758L121.695 80.3217Z" fill="#005F8A"/>
<path d="M45.4861 86.3146L85.126 81.4883L105.461 93.0452L61.429 100.21L45.4861 86.3146Z" fill="#005F8A"/>
<path d="M115.113 103.87V160.865L94.487 158.75L85.5148 157.835L82.7814 157.549L73.815 156.628L61.429 155.359V100.21L105.455 103.207L115.113 103.87Z" fill="#005F8A"/>
<path d="M158.264 96.9966V152.579L141.732 155.753L133.692 157.297L115.113 160.865V103.87L158.264 96.9966Z" fill="#005F8A"/>
<path opacity="0.1" d="M158.264 96.9966V152.579L141.732 155.753L133.692 157.297L115.113 160.865V103.87L158.264 96.9966Z" fill="black"/>
<path d="M45.4861 112.208L61.429 100.21L115.113 103.87L107.21 117.183L45.4861 112.208Z" fill="#005F8A"/>
<path opacity="0.07" d="M45.4861 112.208L61.429 100.21L115.113 103.87L107.21 117.183L45.4861 112.208Z" fill="white"/>
<path d="M158.264 96.9966L115.113 103.87L129.158 116.451L175.379 108.696L158.264 96.9966Z" fill="#005F8A"/>
<path opacity="0.07" d="M158.264 96.9966L115.113 103.87L129.158 116.451L175.379 108.696L158.264 96.9966Z" fill="white"/>
<path opacity="0.1" d="M141.732 155.753L133.692 157.297V145.42L141.224 143.521L141.732 155.753Z" fill="white"/>
<path opacity="0.1" d="M94.4871 150.892V158.75L85.5149 157.835V150.892H94.4871Z" fill="white"/>
<path opacity="0.1" d="M82.7814 153.369V157.549L73.8149 156.628V153.369H82.7814Z" fill="white"/>
<path opacity="0.1" d="M72.597 123.747C71.7621 126.149 69.6406 129.706 67.5877 132.273L65.5405 130.14L69.5434 122.706C69.5434 122.706 70.6928 123.084 72.597 123.747Z" fill="black"/>
<path d="M145.061 24.9375C145.061 24.9375 136.629 24.4293 137.614 30.3447C137.614 30.3447 137.417 31.3898 138.364 31.8646C138.364 31.8646 138.38 31.4209 139.23 31.574C139.532 31.6249 139.84 31.6398 140.146 31.6184C140.561 31.5907 140.955 31.4278 141.269 31.1546C141.269 31.1546 143.641 30.1761 144.564 26.2976C144.564 26.2976 145.247 25.45 145.229 25.2326L143.805 25.8427C143.805 25.8427 144.291 26.8701 143.907 27.7243C143.907 27.7243 143.862 25.8805 143.587 25.9226C143.532 25.9226 142.848 26.2798 142.848 26.2798C142.848 26.2798 143.685 28.0682 143.053 29.3707C143.053 29.3707 143.292 27.1652 142.587 26.4085L141.584 26.9943C141.584 26.9943 142.562 28.8426 141.899 30.3514C141.899 30.3514 142.07 28.0372 141.373 27.1363L140.463 27.8441C140.463 27.8441 141.384 29.668 140.823 30.9194C140.823 30.9194 140.749 28.2258 140.266 28.0216C140.266 28.0216 139.471 28.7228 139.352 29.0112C139.352 29.0112 139.98 30.3425 139.589 31.0326C139.589 31.0326 139.349 29.2375 139.145 29.2287C139.145 29.2287 138.353 30.418 138.271 31.2256C138.309 30.4727 138.544 29.7429 138.952 29.1089C138.496 29.1952 138.074 29.4135 137.741 29.7368C137.741 29.7368 137.863 28.8958 139.147 28.8226C139.147 28.8226 139.813 27.9196 139.977 27.8641C139.977 27.8641 138.699 27.7576 137.925 28.1015C137.925 28.1015 138.606 27.3094 140.213 27.6577L141.1 26.9255C141.1 26.9255 139.418 26.7036 138.704 26.9499C138.704 26.9499 139.525 26.2488 141.342 26.7591L142.318 26.1756C142.318 26.1756 140.885 25.8649 140.031 25.9781C140.031 25.9781 140.931 25.4922 142.604 26.018L143.303 25.7052C143.303 25.7052 142.252 25.4988 141.945 25.4655C141.639 25.4323 141.621 25.3479 141.621 25.3479C142.287 25.2372 142.97 25.314 143.594 25.5698C143.594 25.5698 145.092 25.0306 145.061 24.9375Z" fill="#388EB5"/>
<path opacity="0.2" d="M170.679 54.5234C170.679 54.5234 162.248 54.0153 163.233 59.9307C163.233 59.9307 163.035 60.9757 163.983 61.4506C163.983 61.4506 163.998 61.0068 164.85 61.1599C165.153 61.2108 165.461 61.2257 165.767 61.2043C166.177 61.1745 166.566 61.0126 166.876 60.7428C166.876 60.7428 169.25 59.762 170.173 55.8835C170.173 55.8835 170.855 55.0381 170.828 54.8207L169.403 55.4287C169.403 55.4287 169.889 56.456 169.508 57.3102C169.508 57.3102 169.461 55.4664 169.188 55.5085C169.133 55.5085 168.447 55.8658 168.447 55.8658C168.447 55.8658 169.286 57.6564 168.654 58.9566C168.654 58.9566 168.893 56.7511 168.185 55.9945L167.194 56.5736C167.194 56.5736 168.172 58.4219 167.509 59.9307C167.509 59.9307 167.679 57.6164 166.983 56.7156L166.075 57.4256C166.075 57.4256 166.994 59.2473 166.435 60.4987C166.435 60.4987 166.361 57.805 165.878 57.6009C165.878 57.6009 165.083 58.302 164.961 58.5905C164.961 58.5905 165.592 59.9218 165.201 60.6118C165.201 60.6118 164.961 58.8168 164.757 58.8079C164.757 58.8079 163.965 59.9972 163.883 60.8049C163.923 60.0518 164.158 59.3222 164.566 58.6881C164.109 58.7747 163.687 58.993 163.353 59.316C163.353 59.316 163.477 58.4751 164.762 58.4019C164.762 58.4019 165.416 57.4988 165.592 57.4434C165.592 57.4434 164.313 57.3368 163.539 57.6808C163.539 57.6808 164.22 56.8886 165.824 57.2481L166.712 56.5159C166.712 56.5159 165.028 56.294 164.316 56.5403C164.316 56.5403 165.137 55.8391 166.954 56.3495L167.93 55.7659C167.93 55.7659 166.495 55.4575 165.64 55.5684C165.64 55.5684 166.543 55.0825 168.216 55.6084L168.915 55.2955C168.915 55.2955 167.864 55.0892 167.555 55.0559C167.247 55.0226 167.231 54.9383 167.231 54.9383C167.897 54.8275 168.581 54.9043 169.206 55.1602C169.206 55.1602 170.706 54.6166 170.679 54.5234Z" fill="#005F8A"/>
<path opacity="0.2" d="M119.457 49.2714C119.457 49.2714 121.399 41.0417 115.399 41.0129C115.399 41.0129 114.403 40.6401 113.775 41.4922C113.775 41.4922 114.203 41.5831 113.913 42.3952C113.812 42.6824 113.745 42.9802 113.713 43.2828C113.67 43.6952 113.763 44.1104 113.977 44.4654C113.977 44.4654 114.538 46.9727 118.193 48.5436C118.193 48.5436 118.912 49.3601 119.129 49.369L118.774 47.8624C118.774 47.8624 117.678 48.1664 116.901 47.6405C116.901 47.6405 118.727 47.909 118.73 47.6405C118.73 47.5851 118.508 46.8506 118.508 46.8506C118.508 46.8506 116.602 47.3699 115.426 46.5245C115.426 46.5245 117.558 47.1369 118.426 46.5711L118.026 45.4794C118.026 45.4794 116.029 46.1295 114.663 45.2176C114.663 45.2176 116.915 45.7812 117.922 45.2486L117.378 44.2324C117.378 44.2324 115.426 44.8271 114.288 44.0616C114.288 44.0616 116.95 44.4476 117.239 44.0083C117.239 44.0083 116.684 43.1053 116.42 42.9366C116.42 42.9366 115.009 43.3316 114.387 42.8279C114.387 42.8279 116.196 42.8967 116.238 42.7059C116.238 42.7059 115.202 41.7229 114.412 41.501C115.148 41.6686 115.828 42.025 116.384 42.535C116.376 42.07 116.233 41.6174 115.972 41.2326C115.972 41.2326 116.779 41.4988 116.637 42.7857C116.637 42.7857 117.414 43.5845 117.438 43.7665C117.438 43.7665 117.76 42.5261 117.554 41.703C117.554 41.703 118.219 42.5106 117.591 44.0305L118.159 45.0401C118.159 45.0401 118.674 43.4203 118.543 42.6748C118.543 42.6748 119.096 43.6023 118.281 45.3063L118.692 46.3692C118.692 46.3692 119.24 45.0068 119.276 44.1503C119.276 44.1503 119.602 45.1222 118.796 46.682L118.987 47.4231C118.987 47.4231 119.369 46.4224 119.453 46.1251C119.537 45.8278 119.624 45.8255 119.624 45.8255C119.62 46.5006 119.429 47.1613 119.071 47.7337C119.071 47.7337 119.362 49.2825 119.457 49.2714Z" fill="#005F8A"/>
<path opacity="0.2" d="M100.992 52.076C100.992 52.076 94.2206 47.0104 91.7998 52.4976C91.7998 52.4976 91.0609 53.2631 91.5912 54.1794C91.5912 54.1794 91.8442 53.8222 92.4788 54.4146C92.7035 54.6238 92.9523 54.8055 93.2199 54.956C93.5823 55.1578 94.0006 55.2357 94.4114 55.1779C94.4114 55.1779 96.932 55.6638 99.8342 52.9325C99.8342 52.9325 100.87 52.5996 100.968 52.4044L99.4393 52.1359C99.4393 52.1359 99.2795 53.2608 98.4918 53.7645C98.4918 53.7645 99.4659 52.198 99.2129 52.0849C99.1619 52.0605 98.3986 51.9739 98.3986 51.9739C98.3986 51.9739 98.1146 53.9309 96.8721 54.6698C96.8721 54.6698 98.2855 52.9591 98.1102 51.9384L96.9497 51.8763C96.9497 51.8763 96.7522 53.9598 95.3677 54.8562C95.3677 54.8562 96.7811 53.0168 96.699 51.8807L95.5496 51.9739C95.5496 51.9739 95.3167 53.9997 94.1606 54.7364C94.1606 54.7364 95.5785 52.4465 95.2878 52.0116C95.2878 52.0116 94.2383 52.1603 93.9787 52.3334C93.9787 52.3334 93.7768 53.7845 93.0668 54.1528C93.0668 54.1528 93.8544 52.522 93.6947 52.4088C93.6947 52.4088 92.3789 52.9657 91.8619 53.6003C92.3092 52.9927 92.9072 52.5124 93.5971 52.2069C93.1679 52.0285 92.696 51.9792 92.2391 52.0649C92.2391 52.0649 92.8027 51.4303 93.9166 52.076C93.9166 52.076 94.9594 51.6833 95.1369 51.7321C95.1369 51.7321 94.1274 50.9399 93.2909 50.8024C93.2909 50.8024 94.2982 50.5139 95.4409 51.6899L96.5925 51.5723C96.5925 51.5723 95.3122 50.4629 94.5778 50.2765C94.5778 50.2765 95.6495 50.1412 96.8854 51.5657L98.0214 51.6167C98.0214 51.6167 96.9941 50.5694 96.2197 50.1922C96.2197 50.1922 97.2382 50.281 98.3476 51.6411L99.1042 51.7631C99.1042 51.7631 98.3387 51.0132 98.0991 50.8179C97.8594 50.6227 97.8927 50.5406 97.8927 50.5406C98.51 50.8139 99.0392 51.2533 99.4215 51.8097C99.4215 51.8097 100.964 52.167 100.992 52.076Z" fill="#005F8A"/>
<path opacity="0.15" d="M123.538 5.01234C123.538 5.01234 116.766 -0.0554714 114.345 5.43392C114.345 5.43392 113.606 6.19942 114.137 7.1158C114.137 7.1158 114.39 6.75856 115.024 7.35099C115.25 7.55902 115.5 7.73997 115.767 7.89017C116.13 8.09211 116.548 8.17003 116.959 8.11205C116.959 8.11205 119.48 8.59798 122.382 5.86437C122.382 5.86437 123.418 5.53377 123.513 5.33629L121.985 5.07225C121.985 5.07225 121.827 6.1972 121.037 6.70087C121.037 6.70087 122.013 5.13438 121.761 5.02122C121.71 4.99681 120.946 4.91028 120.946 4.91028C120.946 4.91028 120.653 6.87172 119.411 7.60616C119.411 7.60616 120.822 5.89544 120.649 4.87477L119.488 4.81265C119.488 4.81265 119.289 6.89613 117.906 7.79032C117.906 7.79032 119.32 5.95091 119.238 4.81487L118.091 4.90806C118.091 4.90806 117.855 6.93607 116.699 7.67272C116.699 7.67272 118.119 5.38289 117.829 4.948C117.829 4.948 116.779 5.09666 116.52 5.26973C116.52 5.26973 116.318 6.72084 115.608 7.08917C115.608 7.08917 116.395 5.45833 116.236 5.34295C116.236 5.34295 114.92 5.90209 114.403 6.53668C114.849 5.92843 115.448 5.44797 116.138 5.14325C115.708 4.96354 115.235 4.91416 114.778 5.00125C114.778 5.00125 115.344 4.36666 116.458 5.01234C116.458 5.01234 117.5 4.61739 117.678 4.66842C117.678 4.66842 116.668 3.8763 115.832 3.73651C115.832 3.73651 116.837 3.45029 117.98 4.62405L119.131 4.50645C119.131 4.50645 117.853 3.39703 117.117 3.20843C117.117 3.20843 118.188 3.0753 119.426 4.49979L120.562 4.54861C120.562 4.54861 119.535 3.50132 118.758 3.12634C118.758 3.12634 119.779 3.21509 120.889 4.57523L121.643 4.69727C121.643 4.69727 120.875 3.95618 120.636 3.76536C120.396 3.57454 120.429 3.49022 120.429 3.49022C121.047 3.76327 121.576 4.20271 121.958 4.7594C121.958 4.7594 123.5 5.09666 123.538 5.01234Z" fill="#005F8A"/>
<path opacity="0.15" d="M149.414 11.4314C149.414 11.4314 146.707 3.41921 141.601 6.56773C141.601 6.56773 140.559 6.78962 140.477 7.83469C140.477 7.83469 140.887 7.68381 141.069 8.52696C141.137 8.82689 141.239 9.118 141.373 9.39453C141.556 9.76667 141.855 10.0695 142.225 10.2577C142.225 10.2577 144.027 12.0882 147.967 11.4824C147.967 11.4824 149.008 11.7975 149.199 11.6888L148.089 10.5994C148.089 10.5994 147.322 11.4359 146.385 11.4026C146.385 11.4026 148.078 10.6659 147.938 10.4285C147.91 10.3819 147.331 9.87823 147.331 9.87823C147.331 9.87823 145.986 11.3271 144.544 11.2317C144.544 11.2317 146.676 10.6238 147.111 9.67854L146.192 8.97073C146.192 8.97073 144.848 10.5727 143.199 10.5239C143.199 10.5239 145.418 9.81167 145.979 8.8265L144.981 8.25183C144.981 8.25183 143.649 9.78948 142.269 9.74066C142.269 9.74066 144.737 8.66009 144.743 8.13645C144.743 8.13645 143.796 7.66384 143.483 7.6594C143.483 7.6594 142.493 8.73997 141.708 8.64234C141.708 8.64234 143.279 7.74372 143.212 7.55955C143.212 7.55955 141.815 7.27332 141.027 7.50408C141.739 7.25603 142.504 7.19866 143.246 7.33767C142.992 6.94693 142.631 6.6385 142.205 6.45014C142.205 6.45014 143.03 6.24822 143.583 7.41089C143.583 7.41089 144.666 7.67937 144.781 7.81915C144.781 7.81915 144.399 6.59658 143.789 6.00637C143.789 6.00637 144.781 6.34141 145.052 7.96338L146.068 8.51809C146.068 8.51809 145.649 6.87393 145.143 6.29926C145.143 6.29926 146.104 6.79627 146.312 8.67119L147.222 9.35681C147.222 9.35681 146.969 7.91013 146.543 7.16016C146.543 7.16016 147.333 7.8125 147.475 9.56316L148.027 10.0912C148.027 10.0912 147.823 9.03951 147.739 8.74219C147.654 8.44487 147.723 8.4249 147.723 8.4249C148.076 9.00049 148.263 9.66245 148.262 10.3375C148.262 10.3375 149.336 11.4891 149.414 11.4314Z" fill="#005F8A"/>
<path opacity="0.15" d="M131.748 11.8264C131.748 11.8264 123.338 10.89 124.033 16.8565C124.033 16.8565 123.782 17.8905 124.698 18.4097C124.698 18.4097 124.736 17.9659 125.586 18.1656C125.886 18.2302 126.193 18.2607 126.5 18.2566C126.915 18.2491 127.316 18.1065 127.643 17.8505C127.643 17.8505 130.063 16.9918 131.193 13.1643C131.193 13.1643 131.916 12.3545 131.901 12.1348L130.447 12.6718C130.447 12.6718 130.891 13.7213 130.447 14.5555C130.447 14.5555 130.494 12.7117 130.225 12.7405C130.17 12.7405 129.469 13.0601 129.469 13.0601C129.469 13.0601 130.214 14.8906 129.518 16.1664C129.518 16.1664 129.868 13.9742 129.2 13.1843L128.169 13.7168C128.169 13.7168 129.056 15.6139 128.313 17.0872C128.313 17.0872 128.601 14.7841 127.951 13.85L127.008 14.5156C127.008 14.5156 127.834 16.3816 127.21 17.6042C127.21 17.6042 127.274 14.9106 126.802 14.682C126.802 14.682 125.972 15.3477 125.837 15.6228C125.837 15.6228 126.398 16.9763 125.974 17.653C125.974 17.653 125.826 15.8491 125.63 15.8314C125.63 15.8314 124.778 16.9785 124.654 17.7884C124.731 17.0375 125.003 16.32 125.444 15.7071C124.983 15.7707 124.552 15.9674 124.201 16.2729C124.201 16.2729 124.366 15.4409 125.652 15.432C125.652 15.432 126.351 14.5644 126.54 14.5178C126.54 14.5178 125.269 14.347 124.476 14.651C124.476 14.651 125.198 13.8921 126.782 14.3337L127.716 13.648C127.716 13.648 126.027 13.3063 125.313 13.5282C125.313 13.5282 126.169 12.8626 127.958 13.4728L128.963 12.938C128.963 12.938 127.545 12.5564 126.686 12.6252C126.686 12.6252 127.612 12.1814 129.256 12.796L129.97 12.5187C129.97 12.5187 128.93 12.2591 128.623 12.2102C128.317 12.1614 128.306 12.0771 128.306 12.0771C128.977 12.0001 129.656 12.1108 130.268 12.3966C130.268 12.3966 131.763 11.9196 131.748 11.8264Z" fill="#005F8A"/>
<path opacity="0.15" d="M205.324 77.0978C205.324 77.0978 196.919 76.1614 197.614 82.1212C197.614 82.1212 197.363 83.1552 198.279 83.6744C198.279 83.6744 198.317 83.2306 199.167 83.4281C199.467 83.4949 199.774 83.5255 200.081 83.5191C200.496 83.5127 200.898 83.37 201.224 83.113C201.224 83.113 203.644 82.2543 204.763 78.4291C204.763 78.4291 205.486 77.617 205.47 77.3995L204.017 77.9343C204.017 77.9343 204.461 78.986 204.017 79.8203C204.017 79.8203 204.064 77.9742 203.795 78.0053C203.74 78.0053 203.039 78.3226 203.039 78.3226C203.039 78.3226 203.784 80.1531 203.087 81.4289C203.087 81.4289 203.438 79.2389 202.77 78.4468L201.738 78.9816C201.738 78.9816 202.626 80.8787 201.885 82.352C201.885 82.352 202.171 80.0488 201.521 79.1125L200.578 79.7781C200.578 79.7781 201.403 81.6442 200.78 82.8645C200.78 82.8645 200.844 80.1708 200.372 79.9445C200.372 79.9445 199.544 80.6102 199.406 80.8853C199.406 80.8853 199.97 82.2388 199.544 82.9155C199.544 82.9155 199.395 81.1116 199.2 81.0939C199.2 81.0939 198.348 82.241 198.224 83.0509C198.301 82.3 198.573 81.5825 199.014 80.9696C198.553 81.0321 198.121 81.2289 197.771 81.5354C197.771 81.5354 197.935 80.7012 199.222 80.6923C199.222 80.6923 199.923 79.8247 200.11 79.7803C200.11 79.7803 198.838 79.6073 198.046 79.9112C198.046 79.9112 198.767 79.1546 200.354 79.5962L201.286 78.9106C201.286 78.9106 199.617 78.5955 198.892 78.8129C198.892 78.8129 199.748 78.1473 201.536 78.7552L202.542 78.2227C202.542 78.2227 201.124 77.8411 200.265 77.9099C200.265 77.9099 201.19 77.4661 202.834 78.0807L203.549 77.8011C203.549 77.8011 202.508 77.5415 202.202 77.4949C201.896 77.4483 201.885 77.3618 201.885 77.3618C202.555 77.2835 203.235 77.3933 203.846 77.6791C203.846 77.6791 205.346 77.1932 205.324 77.0978Z" fill="#005F8A"/>
<path opacity="0.15" d="M218.173 84.948C218.173 84.948 209.768 84.0139 210.463 89.9714C210.463 89.9714 210.214 91.0054 211.129 91.5246C211.129 91.5246 211.166 91.0809 212.016 91.2805C212.316 91.3457 212.622 91.3755 212.928 91.3693C213.341 91.3608 213.74 91.2192 214.066 90.9655C214.066 90.9655 216.485 90.1068 217.603 86.2793C217.603 86.2793 218.329 85.4694 218.311 85.2498L216.858 85.7845C216.858 85.7845 217.301 86.8362 216.858 87.6705C216.858 87.6705 216.904 85.8267 216.636 85.8555C216.58 85.8555 215.879 86.1728 215.879 86.1728C215.879 86.1728 216.625 88.0033 215.928 89.2792C215.928 89.2792 216.278 87.0892 215.611 86.2993L214.579 86.8318C214.579 86.8318 215.466 88.7289 214.725 90.2022C214.725 90.2022 215.011 87.899 214.361 86.9649L213.418 87.6306C213.418 87.6306 214.244 89.4966 213.623 90.7192C213.623 90.7192 213.685 88.0233 213.212 87.797C213.212 87.797 212.384 88.4626 212.247 88.7378C212.247 88.7378 212.81 90.0912 212.384 90.768C212.384 90.768 212.236 88.9641 212.04 88.9463C212.04 88.9463 211.188 90.0935 211.066 90.9033C211.143 90.1528 211.415 89.4354 211.854 88.8221C211.394 88.8857 210.962 89.0824 210.612 89.3879C210.612 89.3879 210.778 88.5536 212.065 88.5469C212.065 88.5469 212.764 87.6794 212.952 87.6328C212.952 87.6328 211.681 87.4619 210.889 87.7659C210.889 87.7659 211.61 87.0071 213.196 87.4486L214.128 86.763C214.128 86.763 212.46 86.4479 211.734 86.6654C211.734 86.6654 212.591 85.9997 214.379 86.6099L215.384 86.0752C215.384 86.0752 213.966 85.6935 213.108 85.7623C213.108 85.7623 214.033 85.3185 215.677 85.9332L216.392 85.6558C216.392 85.6558 215.351 85.3962 215.047 85.3474C214.743 85.2986 214.727 85.2143 214.727 85.2143C215.398 85.1373 216.077 85.2479 216.689 85.5338C216.689 85.5338 218.196 85.0434 218.173 84.948Z" fill="#005F8A"/>
<path opacity="0.2" d="M189.646 18.8246C189.646 18.8246 182.874 13.759 180.453 19.2462C180.453 19.2462 179.714 20.0117 180.245 20.928C180.245 20.928 180.498 20.5708 181.132 21.1632C181.357 21.3723 181.606 21.5541 181.873 21.7046C182.236 21.9063 182.654 21.9842 183.065 21.9265C183.065 21.9265 185.585 22.4124 188.49 19.681C188.49 19.681 189.524 19.3482 189.621 19.153L188.097 18.8778C188.097 18.8778 187.937 20.0028 187.15 20.5064C187.15 20.5064 188.124 18.94 187.871 18.8268C187.82 18.8024 187.059 18.7159 187.059 18.7159C187.059 18.7159 186.772 20.6729 185.53 21.4117C185.53 21.4117 186.943 19.701 186.768 18.6804L185.607 18.6182C185.607 18.6182 185.41 20.7017 184.025 21.5981C184.025 21.5981 185.441 19.7587 185.357 18.6227L184.207 18.7159C184.207 18.7159 183.986 20.7416 182.818 21.4783C182.818 21.4783 184.238 19.1885 183.946 18.7536C183.946 18.7536 182.896 18.9022 182.636 19.0753C182.636 19.0753 182.437 20.5264 181.727 20.8947C181.727 20.8947 182.512 19.2639 182.352 19.1507C182.352 19.1507 181.037 19.7077 180.52 20.3423C180.967 19.7347 181.565 19.2543 182.255 18.9488C181.826 18.7704 181.354 18.7211 180.897 18.8068C180.897 18.8068 181.463 18.1722 182.577 18.8179C182.577 18.8179 183.617 18.4252 183.795 18.474C183.795 18.474 182.785 17.6819 181.949 17.5443C181.949 17.5443 182.956 17.2559 184.099 18.4318L185.25 18.3142C185.25 18.3142 183.972 17.2048 183.236 17.0184C183.236 17.0184 184.307 16.8831 185.543 18.3076L186.681 18.3586C186.681 18.3586 185.652 17.3113 184.877 16.9341C184.877 16.9341 185.898 17.0229 187.005 18.383L187.762 18.5051C187.762 18.5051 186.996 17.7551 186.757 17.5598C186.517 17.3646 186.553 17.3002 186.553 17.3002C187.169 17.574 187.698 18.0134 188.079 18.5694C188.079 18.5694 189.617 18.9155 189.646 18.8246Z" fill="#005F8A"/>
<path opacity="0.2" d="M194.878 55.3954C194.878 55.3954 192.544 47.2678 187.294 50.1855C187.294 50.1855 186.242 50.3475 186.111 51.3992C186.111 51.3992 186.528 51.2683 186.673 52.1181C186.726 52.4234 186.816 52.7214 186.939 53.0057C187.104 53.388 187.389 53.706 187.751 53.911C187.751 53.911 189.468 55.8192 193.431 55.3931C193.431 55.3931 194.456 55.7526 194.652 55.655L193.602 54.5145C193.602 54.5145 192.797 55.3177 191.865 55.2423C191.865 55.2423 193.587 54.5766 193.453 54.3392C193.427 54.2904 192.872 53.7601 192.872 53.7601C192.872 53.7601 191.465 55.1491 190.028 54.9871C190.028 54.9871 192.186 54.4768 192.661 53.5582L191.774 52.8082C191.774 52.8082 190.358 54.3481 188.714 54.2283C188.714 54.2283 190.951 53.6136 191.567 52.6573L190.596 52.0383C190.596 52.0383 189.187 53.5138 187.82 53.4028C187.82 53.4028 190.334 52.4332 190.365 51.9118C190.365 51.9118 189.437 51.397 189.125 51.3793C189.125 51.3793 188.088 52.4132 187.301 52.2801C187.301 52.2801 188.911 51.4525 188.854 51.2661C188.854 51.2661 187.469 50.9178 186.673 51.1108C187.394 50.8969 188.159 50.8747 188.892 51.0464C188.657 50.645 188.31 50.321 187.893 50.1145C187.893 50.1145 188.727 49.9481 189.224 51.1352C189.224 51.1352 190.292 51.4503 190.403 51.5967C190.403 51.5967 190.076 50.3564 189.493 49.7418C189.493 49.7418 190.469 50.119 190.667 51.752L191.656 52.3533C191.656 52.3533 191.31 50.6892 190.831 50.1034C190.831 50.1034 191.767 50.6426 191.894 52.5242L192.781 53.2497C192.781 53.2497 192.593 51.7942 192.202 51.0309C192.202 51.0309 192.963 51.7188 193.025 53.4716L193.553 54.0263C193.553 54.0263 193.398 52.9657 193.331 52.664C193.265 52.3622 193.331 52.3201 193.331 52.3201C193.66 52.9102 193.817 53.5802 193.786 54.2549C193.786 54.2549 194.798 55.4486 194.878 55.3954Z" fill="#005F8A"/>
<path opacity="0.2" d="M142.864 73.7096C142.864 73.7096 138.331 66.5694 134.122 70.8429C134.122 70.8429 133.159 71.2866 133.327 72.3406C133.327 72.3406 133.694 72.0965 134.071 72.8731C134.206 73.1483 134.375 73.4061 134.572 73.6408C134.837 73.9612 135.199 74.1857 135.604 74.2799C135.604 74.2799 137.79 75.6289 141.473 74.1023C141.473 74.1023 142.558 74.16 142.718 74.0114L141.386 73.2126C141.386 73.2126 140.838 74.2111 139.922 74.3997C139.922 74.3997 141.391 73.2903 141.193 73.0861C141.155 73.0462 140.472 72.6956 140.472 72.6956C140.472 72.6956 139.511 74.4219 138.087 74.6726C138.087 74.6726 140.015 73.5743 140.215 72.558L139.152 72.0899C139.152 72.0899 138.227 73.9648 136.616 74.3087C136.616 74.3087 138.591 73.0906 138.912 71.9989L137.803 71.6794C137.803 71.6794 136.866 73.4922 135.524 73.7695C135.524 73.7695 137.663 72.132 137.545 71.6217C137.545 71.6217 136.511 71.3887 136.214 71.4597C136.214 71.4597 135.511 72.7444 134.716 72.8376C134.716 72.8376 136.03 71.5906 135.921 71.4264C135.921 71.4264 134.495 71.4819 133.785 71.8924C134.418 71.4821 135.148 71.2449 135.901 71.2046C135.564 70.8852 135.14 70.6716 134.683 70.5899C134.683 70.5899 135.435 70.1972 136.236 71.1957C136.236 71.1957 137.346 71.1957 137.499 71.3066C137.499 71.3066 136.833 70.1972 136.103 69.7823C136.103 69.7823 137.146 69.871 137.794 71.3821L138.914 71.6794C138.914 71.6794 138.113 70.1817 137.49 69.7534C137.49 69.7534 138.539 70.0064 139.19 71.7792L140.237 72.223C140.237 72.223 139.647 70.8806 139.054 70.2527C139.054 70.2527 139.977 70.6964 140.53 72.3628L141.195 72.7466C141.195 72.7466 140.752 71.7726 140.594 71.5041C140.437 71.2356 140.499 71.1735 140.499 71.1735C140.979 71.6478 141.318 72.2462 141.477 72.902C141.477 72.902 142.804 73.7851 142.864 73.7096Z" fill="#005F8A"/>
<path d="M172.656 37.2276C172.656 37.2276 168.345 29.952 164.003 34.0924C164.003 34.0924 163.027 34.5139 163.164 35.5657C163.164 35.5657 163.535 35.3305 163.89 36.1181C164.017 36.3981 164.177 36.6619 164.367 36.9036C164.622 37.2308 164.977 37.4648 165.379 37.5693C165.379 37.5693 167.52 38.9849 171.25 37.5693C171.25 37.5693 172.332 37.6602 172.497 37.516L171.194 36.6773C171.194 36.6773 170.617 37.6558 169.694 37.8178C169.694 37.8178 171.196 36.7461 171.008 36.5442C170.968 36.502 170.298 36.1292 170.298 36.1292C170.298 36.1292 169.284 37.8266 167.857 38.033C167.857 38.033 169.818 36.9946 170.047 35.9872L169 35.4947C169 35.4947 168.017 37.3429 166.395 37.638C166.395 37.638 168.407 36.482 168.762 35.4015L167.666 35.0464C167.666 35.0464 166.672 36.8215 165.323 37.0656C165.323 37.0656 167.511 35.4947 167.409 34.9821C167.409 34.9821 166.384 34.7158 166.077 34.778C166.077 34.778 165.334 36.0405 164.538 36.1093C164.538 36.1093 165.889 34.9067 165.787 34.738C165.787 34.738 164.358 34.7491 163.637 35.1374C164.283 34.7478 165.019 34.5336 165.773 34.5161C165.446 34.1863 165.028 33.9596 164.573 33.8638C164.573 33.8638 165.339 33.4933 166.126 34.5161C166.126 34.5161 167.236 34.5539 167.384 34.667C167.384 34.667 166.756 33.5576 166.038 33.1005C166.038 33.1005 167.076 33.2204 167.677 34.7513L168.787 35.0842C168.787 35.0842 168.035 33.5621 167.422 33.1138C167.422 33.1138 168.465 33.4001 169.06 35.1907L170.091 35.6722C170.091 35.6722 169.543 34.312 168.982 33.6752C168.982 33.6752 169.889 34.1478 170.393 35.8297L171.043 36.2335C171.043 36.2335 170.626 35.2461 170.48 34.9732C170.333 34.7003 170.395 34.6404 170.395 34.6404C170.86 35.1293 171.181 35.7376 171.321 36.3977C171.321 36.3977 172.592 37.3008 172.656 37.2276Z" fill="#388EB5"/>
<path d="M145.38 52.5264C145.38 52.5264 145.602 44.0727 139.729 45.2642C139.729 45.2642 138.677 45.1022 138.233 46.0652C138.233 46.0652 138.677 46.0652 138.553 46.9194C138.512 47.224 138.508 47.5324 138.539 47.838C138.579 48.2526 138.755 48.6425 139.039 48.9475C139.039 48.9475 140.097 51.2861 144.004 52.0804C144.004 52.0804 144.872 52.735 145.089 52.6995L144.424 51.2972C144.424 51.2972 143.414 51.8164 142.547 51.4636C142.547 51.4636 144.388 51.3549 144.337 51.0842C144.337 51.0287 143.956 50.3542 143.956 50.3542C143.956 50.3542 142.194 51.2528 140.874 50.6626C140.874 50.6626 143.092 50.829 143.818 50.099L143.199 49.1161C143.199 49.1161 141.384 50.1545 139.853 49.5421C139.853 49.5421 142.172 49.6353 143.05 48.9097L142.311 48.0222C142.311 48.0222 140.521 49.0029 139.252 48.4837C139.252 48.4837 141.941 48.3217 142.136 47.8314C142.136 47.8314 141.408 47.0614 141.115 46.9438C141.115 46.9438 139.815 47.6095 139.105 47.25C139.105 47.25 140.88 46.9527 140.891 46.7552C140.891 46.7552 139.678 46.0031 138.859 45.9476C139.614 45.9611 140.352 46.1722 141 46.56C140.899 46.1065 140.668 45.6923 140.334 45.3685C140.334 45.3685 141.18 45.4639 141.295 46.7442C141.295 46.7442 142.22 47.3699 142.28 47.5429C142.28 47.5429 142.345 46.2627 141.974 45.4994C141.974 45.4994 142.791 46.1539 142.484 47.7693L143.246 48.6435C143.246 48.6435 143.419 46.9527 143.141 46.2494C143.141 46.2494 143.869 47.0459 143.421 48.8787L144.035 49.835C144.035 49.835 144.297 48.3905 144.157 47.5407C144.157 47.5407 144.672 48.4282 144.202 50.1168L144.539 50.8046C144.539 50.8046 144.71 49.7462 144.732 49.4378C144.754 49.1294 144.839 49.1094 144.839 49.1094C144.972 49.7713 144.919 50.4573 144.686 51.0908C144.686 51.0908 145.282 52.5553 145.38 52.5264Z" fill="#388EB5"/>
<path opacity="0.1" d="M155.09 159.945C158.39 159.945 161.065 159.493 161.065 158.935C161.065 158.377 158.39 157.925 155.09 157.925C151.79 157.925 149.115 158.377 149.115 158.935C149.115 159.493 151.79 159.945 155.09 159.945Z" fill="#F5F5F6"/>
<path opacity="0.1" d="M133.307 175.272C136.607 175.272 139.283 174.82 139.283 174.263C139.283 173.705 136.607 173.253 133.307 173.253C130.007 173.253 127.332 173.705 127.332 174.263C127.332 174.82 130.007 175.272 133.307 175.272Z" fill="#F5F5F6"/>
<path opacity="0.1" d="M20.6662 167.42C23.9663 167.42 26.6415 166.968 26.6415 166.41C26.6415 165.853 23.9663 165.401 20.6662 165.401C17.3662 165.401 14.6909 165.853 14.6909 166.41C14.6909 166.968 17.3662 167.42 20.6662 167.42Z" fill="#388EB5"/>
<path opacity="0.1" d="M178.629 174.263C181.929 174.263 184.605 173.811 184.605 173.253C184.605 172.696 181.929 172.244 178.629 172.244C175.329 172.244 172.654 172.696 172.654 173.253C172.654 173.811 175.329 174.263 178.629 174.263Z" fill="#F5F5F6"/>
<path d="M184.851 161.953C189.778 161.953 193.773 161.277 193.773 160.444C193.773 159.61 189.778 158.935 184.851 158.935C179.923 158.935 175.929 159.61 175.929 160.444C175.929 161.277 179.923 161.953 184.851 161.953Z" fill="#FFB74D"/>
<path d="M188.55 157.974C188.957 157.643 189.254 157.196 189.4 156.692C189.511 156.181 189.293 155.571 188.807 155.385C188.261 155.176 187.678 155.553 187.234 155.935C186.79 156.317 186.287 156.754 185.708 156.674C186.005 156.404 186.227 156.062 186.353 155.68C186.479 155.299 186.504 154.891 186.426 154.497C186.401 154.334 186.332 154.181 186.227 154.054C185.923 153.73 185.375 153.869 185.011 154.125C183.857 154.937 183.535 156.503 183.529 157.914C183.413 157.406 183.511 156.876 183.509 156.361C183.506 155.846 183.362 155.252 182.921 154.981C182.65 154.83 182.343 154.753 182.033 154.759C181.514 154.741 180.935 154.792 180.582 155.172C180.138 155.642 180.256 156.434 180.637 156.947C181.019 157.459 181.603 157.79 182.14 158.149C182.569 158.406 182.936 158.756 183.214 159.172C183.245 159.23 183.271 159.291 183.291 159.354H186.544C187.272 158.988 187.947 158.523 188.55 157.974Z" fill="#FFB74D"/>
<path d="M16.6545 161.717C16.6545 161.717 20.0604 161.613 21.0922 160.881C22.124 160.149 26.3353 159.277 26.5905 160.45C26.8456 161.624 31.7115 166.284 27.8641 166.315C24.0166 166.346 18.9244 165.716 17.8993 165.09C16.8742 164.464 16.6545 161.717 16.6545 161.717Z" fill="#B2B2B4"/>
<path opacity="0.2" d="M27.9284 165.907C24.081 165.938 18.9888 165.307 17.9637 164.682C17.1826 164.207 16.872 162.501 16.7677 161.713H16.6545C16.6545 161.713 16.8764 164.462 17.8949 165.086C18.9133 165.709 24.0122 166.341 27.8596 166.31C28.9691 166.31 29.3529 165.907 29.3329 165.321C29.1776 165.678 28.7538 165.9 27.9284 165.907Z" fill="black"/>
</g>
<defs>
<clipPath id="clip0">
<rect width="224" height="175.272" fill="white"/>
</clipPath>
</defs>
</svg>