<svg width="56" height="56" viewBox="0 0 56 56" fill="none" xmlns="http://www.w3.org/2000/svg">
<g clip-path="url(#clip0_74_2069)">
<path d="M56 0H0V56H56V0Z" fill="#D71638"/>
<path d="M14.8244 42.4297H13.7279L12.3253 48.7259L10.492 42.4811L10.4762 42.4297H9.37983L7.61372 48.7061L6.219 42.485L6.20517 42.4297H5.05542L6.91636 50.5849L6.93019 50.6402H8.16093L9.91914 44.2946L11.7149 50.5889L11.7287 50.6402H12.9298L14.8125 42.4771L14.8244 42.4297Z" fill="white"/>
<path d="M43.6807 47.5701C43.7072 48.115 43.5784 48.6563 43.3093 49.1308C43.1865 49.3298 43.0125 49.4922 42.8056 49.601C42.555 49.7261 42.2775 49.7878 41.9976 49.7808C41.7616 49.7867 41.5299 49.7175 41.3358 49.5832C41.2034 49.4891 41.0918 49.3687 41.0078 49.2296C40.865 48.9919 40.7666 48.7301 40.7174 48.4571C40.6603 48.175 40.6325 47.8876 40.6345 47.5997C40.6172 47.1172 40.7319 46.639 40.9664 46.2168C41.0757 46.0366 41.2276 45.886 41.4089 45.7782C41.6189 45.6618 41.8563 45.6038 42.0963 45.6103C42.349 45.6052 42.5993 45.6593 42.8273 45.7684C43.1181 45.923 43.3464 46.1736 43.4733 46.4776C43.6162 46.8204 43.6868 47.1889 43.6807 47.5602V47.5701ZM44.7831 49.1861V42.3921H43.7044V45.2567C43.5424 45.1099 43.361 44.9863 43.1651 44.8892C42.7968 44.7064 42.391 44.6117 41.9798 44.6127C41.579 44.6064 41.183 44.7008 40.8281 44.8873C40.3588 45.1527 39.9948 45.5711 39.7968 46.0726C39.5888 46.5815 39.4853 47.1271 39.4926 47.6768C39.4767 48.407 39.6692 49.1266 40.0477 49.7512C40.2432 50.0586 40.5103 50.3142 40.8261 50.496C41.1784 50.6927 41.5764 50.7929 41.9798 50.7864C42.301 50.7896 42.6197 50.7296 42.9177 50.6096C43.2156 50.4896 43.487 50.312 43.7163 50.087L43.738 50.6244H44.8443L44.8245 50.1799C44.8048 49.8736 44.7831 49.5279 44.7831 49.1921" fill="white"/>
<path d="M17.9969 49.5872C17.7651 49.7104 17.5067 49.7748 17.2442 49.7748C16.9818 49.7748 16.7233 49.7104 16.4916 49.5872C16.1808 49.397 15.9397 49.1115 15.8041 48.7733C15.6583 48.431 15.583 48.0627 15.5828 47.6906C15.5745 47.1933 15.7119 46.7043 15.9779 46.284C16.1076 46.0845 16.2822 45.9181 16.4876 45.798C16.7194 45.6749 16.9778 45.6105 17.2403 45.6105C17.5027 45.6105 17.7612 45.6749 17.993 45.798C18.3029 45.9865 18.544 46.2699 18.6804 46.6061C18.8271 46.9488 18.9024 47.3178 18.9017 47.6906C18.9089 48.1879 18.7717 48.6765 18.5066 49.0973C18.3775 49.2983 18.2029 49.4662 17.9969 49.5872ZM18.4868 44.8794C18.0969 44.701 17.6731 44.6086 17.2442 44.6086C16.8154 44.6086 16.3916 44.701 16.0016 44.8794C15.4866 45.1329 15.0698 45.5497 14.8163 46.0647C14.5647 46.5723 14.4361 47.132 14.441 47.6986C14.431 48.4499 14.67 49.1834 15.1206 49.7848C15.3551 50.0895 15.6566 50.3362 16.0016 50.5059C16.392 50.6842 16.8161 50.7765 17.2452 50.7765C17.6744 50.7765 18.0985 50.6842 18.4888 50.5059C19.0037 50.2521 19.4204 49.8354 19.6741 49.3205C19.9258 48.8129 20.0544 48.2532 20.0495 47.6867C20.0598 46.9295 19.8172 46.1904 19.36 45.5866C19.1256 45.2846 18.8248 45.0405 18.4809 44.8735" fill="white"/>
<path d="M24.9865 47.7243C24.9908 48.2205 24.8538 48.7077 24.5914 49.1289C24.461 49.3285 24.2858 49.4949 24.0797 49.6149C23.848 49.7381 23.5895 49.8025 23.3271 49.8025C23.0646 49.8025 22.8062 49.7381 22.5744 49.6149C22.2651 49.4265 22.0242 49.144 21.8869 48.8089C21.7413 48.4658 21.6661 48.097 21.6656 47.7243C21.6601 47.2273 21.7972 46.7391 22.0608 46.3177C22.2769 46.0016 22.6026 45.777 22.9748 45.6872C23.347 45.5974 23.7393 45.6489 24.0758 45.8317C24.3861 46.0201 24.6267 46.3044 24.7613 46.6417C24.9094 46.9833 24.9854 47.3519 24.9845 47.7243H24.9865ZM24.5657 44.9071C24.1757 44.7287 23.7519 44.6364 23.3231 44.6364C22.8943 44.6364 22.4705 44.7287 22.0805 44.9071C21.5655 45.1606 21.1487 45.5774 20.8952 46.0924C20.6435 46.6 20.5149 47.1597 20.5198 47.7263C20.5047 48.4823 20.7417 49.2219 21.1935 49.8283C21.4291 50.1299 21.7305 50.3738 22.0746 50.5415C22.4645 50.7199 22.8884 50.8122 23.3172 50.8122C23.746 50.8122 24.1698 50.7199 24.5598 50.5415C25.0745 50.2875 25.4911 49.8708 25.7451 49.3561C25.9967 48.8492 26.1253 48.2902 26.1204 47.7243C26.1341 46.9678 25.8973 46.2281 25.4468 45.6203C25.2118 45.318 24.9103 45.074 24.5657 44.9071Z" fill="white"/>
<path d="M30.7902 47.5939C30.8167 48.1377 30.6893 48.6779 30.4228 49.1526C30.2977 49.351 30.1235 49.5137 29.917 49.6248C29.6664 49.7494 29.3889 49.8105 29.109 49.8026C28.8738 49.8077 28.6429 49.7386 28.4492 49.6051C28.3161 49.5111 28.2038 49.3907 28.1193 49.2514C27.9779 49.0123 27.8796 48.7502 27.8289 48.477C27.7729 48.1946 27.7451 47.9074 27.7459 47.6196C27.7286 47.137 27.8433 46.6588 28.0778 46.2367C28.1866 46.056 28.3387 45.9052 28.5203 45.7981C28.731 45.6814 28.9691 45.6234 29.2098 45.6302C29.4618 45.6248 29.7116 45.679 29.9388 45.7882C30.2295 45.9421 30.4578 46.192 30.5848 46.4955C30.7286 46.8387 30.7992 47.2081 30.7922 47.5801L30.7902 47.5939ZM31.8945 49.206V42.4159H30.8179V45.2805C30.6571 45.1326 30.4762 45.0082 30.2805 44.9111C29.9118 44.7295 29.5062 44.6356 29.0952 44.6365C28.6246 44.6218 28.1611 44.7547 27.7697 45.0164C27.3783 45.2782 27.0785 45.6558 26.9123 46.0964C26.7042 46.606 26.6007 47.1522 26.608 47.7026C26.5916 48.4353 26.7841 49.1576 27.1632 49.7848C27.3585 50.0918 27.6247 50.3472 27.9395 50.5296C28.2931 50.725 28.6913 50.8251 29.0952 50.82C29.5028 50.823 29.9047 50.7246 30.2647 50.5336C30.4734 50.4244 30.6645 50.2845 30.8317 50.1187L30.8534 50.6561H31.9617L31.938 50.2748C31.9162 49.9488 31.8925 49.5813 31.8925 49.2277" fill="white"/>
<path d="M36.1972 47.3666C35.7389 47.2066 35.326 47.1058 34.9566 47.013C34.7195 46.9537 34.5141 46.9023 34.3402 46.847C34.1746 46.8043 34.0193 46.7284 33.8839 46.6238C33.844 46.5894 33.8129 46.5461 33.793 46.4973C33.7694 46.4397 33.758 46.3778 33.7594 46.3156C33.7563 46.21 33.7838 46.1057 33.8384 46.0153C33.9278 45.8842 34.0586 45.7868 34.2098 45.7387C34.4005 45.6735 34.601 45.6414 34.8025 45.6439C35.0814 45.6316 35.3588 45.6908 35.6085 45.8158C35.7049 45.8665 35.7871 45.9405 35.8475 46.0311C35.9123 46.1318 35.9504 46.2474 35.9582 46.367L35.9759 46.5527H37.1099L37.0941 46.3334C37.0778 46.0509 36.9988 45.7756 36.863 45.5273C36.6719 45.2021 36.3737 44.9535 36.0194 44.824C35.6483 44.6909 35.2559 44.6273 34.8618 44.6363C34.3459 44.6249 33.8363 44.7518 33.386 45.0038C33.1508 45.1416 32.9568 45.3401 32.8244 45.5785C32.692 45.8169 32.626 46.0865 32.6334 46.3591C32.629 46.6123 32.6909 46.8623 32.8131 47.0841C32.8988 47.2309 33.0114 47.3603 33.145 47.4654C33.3458 47.6172 33.57 47.7353 33.8088 47.8151C34.0547 47.8968 34.3046 47.966 34.5575 48.0225L34.7175 48.0581C35.0619 48.1157 35.3991 48.2104 35.7231 48.3406C35.8467 48.3919 35.9564 48.4718 36.0431 48.5737C36.1181 48.6752 36.1564 48.7992 36.1518 48.9253C36.1553 49.0607 36.1204 49.1943 36.051 49.3106C35.9449 49.4792 35.7858 49.6077 35.5986 49.6761C35.3777 49.762 35.1423 49.8049 34.9052 49.8025C34.5867 49.8142 34.2703 49.7463 33.9846 49.6049C33.873 49.5429 33.7782 49.4548 33.7081 49.3481C33.6313 49.2243 33.5877 49.0828 33.5816 48.9372L33.5698 48.7396H32.4437V48.951C32.4451 49.2528 32.5233 49.5492 32.6709 49.8124C32.881 50.1614 33.2015 50.4305 33.5816 50.5769C33.95 50.7282 34.345 50.8041 34.7432 50.8002C35.3503 50.8135 35.9484 50.6516 36.4659 50.3339C36.7103 50.1769 36.9136 49.9635 37.0585 49.7116C37.213 49.439 37.2921 49.1301 37.2877 48.8167C37.2891 48.4916 37.1851 48.1748 36.9914 47.9138C36.7916 47.6507 36.5157 47.4555 36.2012 47.3548" fill="white"/>
<path d="M38.9689 42.4316H37.7797V43.6565H38.9689V42.4316Z" fill="white"/>
<path d="M38.9159 44.8142H37.8353V50.6639H38.9159V44.8142Z" fill="white"/>
<path d="M47.128 46.1003C47.2538 45.95 47.41 45.8281 47.5864 45.7428C47.7828 45.6531 47.9967 45.6079 48.2126 45.6104C48.4439 45.6061 48.6737 45.6485 48.8882 45.7349C49.1609 45.8492 49.3885 46.0497 49.5362 46.3058C49.6632 46.5333 49.7463 46.7826 49.7812 47.0407H46.7053C46.7621 46.6958 46.9078 46.3717 47.128 46.1003ZM49.7634 48.6488C49.6898 48.9593 49.5163 49.2369 49.2695 49.4391C49.0162 49.6487 48.6974 49.7627 48.3687 49.7611C48.0976 49.7681 47.8281 49.7169 47.5785 49.611C47.2735 49.4717 47.0278 49.2288 46.8851 48.9254C46.7521 48.6483 46.6755 48.3474 46.6599 48.0404H50.9388V47.8329C50.9388 46.8748 50.7413 46.1102 50.3284 45.559C50.1058 45.2528 49.8086 45.0087 49.4651 44.8498C49.0663 44.6725 48.6332 44.5854 48.1968 44.5949C47.7864 44.5887 47.3803 44.6794 47.0115 44.8597C46.515 45.1172 46.1157 45.529 45.8736 46.0332C45.6239 46.5469 45.4968 47.1116 45.5022 47.6828C45.4834 48.4391 45.7062 49.1816 46.1383 49.8026C46.3565 50.0991 46.6414 50.3401 46.97 50.5059C47.3349 50.6851 47.737 50.7752 48.1435 50.7687C48.7672 50.7968 49.3832 50.6206 49.8977 50.2669C50.3863 49.8771 50.7254 49.3308 50.8578 48.72L50.8776 48.6409L49.7634 48.6488Z" fill="white"/>
<path d="M44.536 12.0116C42.7265 10.4943 36.634 15.9074 34.1527 18.3117C34.8066 22.9306 33.9433 26.6309 31.6339 30.1751C31.3981 30.5381 31.1387 30.8852 30.8575 31.2143C33.3289 31.5264 37.035 29.2723 41.5253 22.9366C44.0382 19.4002 46.6992 13.8291 44.536 12.0116Z" fill="white"/>
<path d="M24.5259 33.9999C20.7507 33.257 20.0375 29.0826 20.2568 25.1216C20.2568 24.9892 20.2568 24.8549 20.2706 24.7265C17.1098 22.2649 12.7755 19.3924 11.3808 20.7042C9.22945 22.7331 12.3547 28.409 15.1935 31.9453C21.6041 39.9385 26.3078 41.2483 28.5619 39.089C29.3027 38.3778 29.9111 36.4891 28.2181 33.3183L28.1273 33.3637C26.6851 34.0631 25.326 34.1658 24.5259 34.0078" fill="white"/>
<path d="M34.1528 18.3117C33.2836 12.9993 29.7612 6.96589 26.9817 7.10616C24.0737 7.25235 20.5731 17.6736 20.2649 24.7185C22.0429 26.1014 23.4672 27.3717 23.7635 27.6661C25.9801 29.8669 27.3768 31.7457 28.2124 33.3104C29.226 32.7965 30.1257 32.0836 30.8576 31.2143C30.2455 31.1409 29.6687 30.888 29.2002 30.4872C28.084 29.537 27.1061 26.0698 33.1275 19.3449C33.2559 19.2007 33.6233 18.8253 34.1528 18.3137" fill="white"/>
</g>
<defs>
<clipPath id="clip0_74_2069">
<rect width="56" height="56" fill="white"/>
</clipPath>
</defs>
</svg>
